<?xml version="1.0" encoding="utf-8"?>
<svg xmlns:xlink="http://www.w3.org/1999/xlink" width="500" zoomAndPan="magnify" viewBox="0 0 375 374.999991" height="500" preserveAspectRatio="xMidYMid meet" version="1.2" baseProfile="tiny-ps" xmlns="http://www.w3.org/2000/svg">
  <title>BoltFlare</title>
  <defs>
    <g />
  </defs>
  <rect x="-37.5" width="450" fill="#ffffff" y="-37.499999" height="449.999989" fill-opacity="1" />
  <rect x="-37.5" width="450" fill="#ffffff" y="-37.499999" height="449.999989" fill-opacity="1" />
  <rect x="-37.5" width="450" fill="#ffffff" y="-37.499999" height="449.999989" fill-opacity="1" />
  <path fill="#002838" d="M 188.613281 217.992188 C 151.953125 217.992188 120.765625 196.09375 107.964844 161.824219 C 118.414062 173.3125 132.25 179.441406 148.324219 179.441406 L 148.445312 179.441406 C 173.386719 179.402344 199.75 163.636719 208.460938 143.550781 L 208.421875 143.550781 C 211.546875 137.457031 210.816406 131.175781 209.816406 127.203125 C 208.660156 122.695312 206.925781 120.574219 206.269531 119.726562 L 205.914062 119.269531 C 204.644531 117.6875 204.839844 115.371094 206.34375 113.984375 C 206.617188 113.75 207.039062 113.441406 207.617188 113.054688 L 208.617188 112.4375 C 213.515625 109.355469 224.578125 106.199219 234.601562 106.199219 C 242.273438 106.199219 252.292969 107.390625 261.699219 116.835938 C 277.503906 132.640625 271.414062 154.695312 269.175781 161.09375 C 265.359375 171.925781 249.519531 207.929688 205.070312 216.410156 C 199.675781 217.453125 194.125 217.992188 188.613281 217.992188 Z M 148.324219 171.730469 C 128.277344 171.730469 112.203125 160.511719 102.953125 140.078125 C 99.90625 104.765625 121.300781 73.085938 146.742188 58.898438 C 150.40625 56.855469 162.046875 50.992188 178.273438 49.066406 C 163.933594 55.851562 153.027344 67.6875 148.015625 83.066406 C 139.6875 108.625 150.136719 135.917969 174.617188 152.570312 L 174.652344 152.53125 C 178.355469 154.960938 182.863281 156.351562 187.492188 156.351562 C 188.03125 156.351562 188.53125 156.351562 189.070312 156.273438 C 178.242188 165.527344 162.898438 171.691406 148.445312 171.730469 Z M 164.324219 132.527344 C 153.609375 118.765625 150.097656 101.683594 155.378906 85.453125 C 162.355469 64.019531 182.753906 50.453125 207.617188 50.375 C 226.96875 54.691406 243.8125 65.992188 257.921875 84.226562 L 258.265625 84.6875 C 259.230469 86.113281 259.15625 88.003906 258.078125 89.355469 C 256.960938 90.664062 255.113281 91.125 253.53125 90.429688 L 251.679688 89.582031 C 250.90625 89.234375 250.214844 89.007812 249.367188 88.699219 C 248.480469 88.390625 247.476562 88.003906 246.167969 87.464844 C 241.195312 85.421875 233.792969 84.265625 225.851562 84.265625 C 219.183594 84.265625 212.667969 85.109375 207.542969 86.652344 C 200.296875 88.8125 178.199219 95.480469 166.671875 120.925781 C 165.246094 124.085938 164.285156 128.132812 164.324219 132.527344 Z M 164.324219 132.527344 " fill-opacity="1" fill-rule="nonzero" />
  <g fill="#002838" fill-opacity="1">
    <g transform="translate(16.83457, 296.622725)">
      <g>
        <path d="M 15.3125 0 L 15.3125 -4.679688 C 19.308594 -0.679688 24.242188 1.105469 29.007812 1.105469 C 39.300781 1.105469 49.082031 -7.230469 49.082031 -21.011719 C 49.082031 -34.960938 38.960938 -44.148438 27.988281 -44.148438 C 19.648438 -44.148438 16.929688 -38.621094 16.929688 -34.28125 C 16.929688 -32.921875 17.183594 -31.644531 17.695312 -30.707031 C 19.566406 -33.429688 23.5625 -34.195312 26.285156 -34.195312 C 34.28125 -34.195312 38.277344 -27.644531 38.277344 -21.179688 C 38.277344 -14.886719 34.535156 -8.761719 26.964844 -8.761719 C 17.863281 -8.761719 15.3125 -17.609375 15.3125 -25.347656 L 15.3125 -59.546875 C 14.886719 -59.628906 14.375 -59.628906 13.949219 -59.628906 C 9.101562 -59.628906 4.253906 -55.800781 4.253906 -50.785156 L 4.253906 0 Z M 15.3125 0 " />
      </g>
    </g>
  </g>
  <g fill="#002838" fill-opacity="1">
    <g transform="translate(68.888007, 296.622725)">
      <g>
        <path d="M 2.976562 -22.542969 C 2.976562 -10.039062 13.101562 0.851562 26.371094 0.851562 C 38.703125 0.851562 49.167969 -8.675781 49.253906 -21.4375 C 49.253906 -33.6875 39.640625 -45.085938 26.113281 -45.085938 C 18.96875 -45.085938 12.757812 -41.9375 8.167969 -36.40625 C 10.121094 -37.597656 12.417969 -38.109375 14.714844 -38.109375 C 18.203125 -38.109375 21.519531 -36.75 23.5625 -34.28125 C 24.5 -34.535156 25.433594 -34.621094 26.371094 -34.621094 C 32.921875 -34.535156 38.023438 -29.601562 38.023438 -21.863281 C 38.023438 -13.269531 31.730469 -9.613281 25.773438 -9.613281 C 19.734375 -9.613281 14.207031 -13.609375 14.207031 -21.777344 C 14.207031 -26.625 17.949219 -29.09375 21.265625 -29.09375 C 22.457031 -29.09375 23.648438 -28.753906 24.582031 -28.15625 C 23.988281 -33.261719 19.140625 -35.640625 14.121094 -35.640625 C 5.699219 -35.640625 2.976562 -29.09375 2.976562 -22.542969 Z M 2.976562 -22.542969 " />
      </g>
    </g>
  </g>
  <g fill="#002838" fill-opacity="1">
    <g transform="translate(121.111548, 296.622725)">
      <g>
        <path d="M 5.105469 0 L 16.164062 0 L 16.164062 -59.546875 C 15.480469 -59.628906 14.886719 -59.714844 14.289062 -59.714844 C 9.015625 -59.714844 5.105469 -55.71875 5.105469 -50.867188 Z M 5.105469 0 " />
      </g>
    </g>
  </g>
  <g fill="#002838" fill-opacity="1">
    <g transform="translate(142.375207, 296.622725)">
      <g>
        <path d="M 3.402344 -34.792969 L 8.847656 -34.792969 L 8.847656 -9.101562 C 8.847656 -2.722656 13.78125 0.425781 18.542969 0.425781 C 24.839844 0.425781 28.496094 -3.742188 28.496094 -8.421875 C 28.496094 -9.273438 28.328125 -10.207031 27.988281 -11.144531 C 27.136719 -9.78125 25.007812 -9.273438 23.050781 -9.273438 C 21.351562 -9.273438 19.90625 -10.464844 19.90625 -12.164062 L 19.90625 -34.792969 L 22.285156 -34.792969 C 28.410156 -34.792969 29.773438 -39.554688 29.773438 -43.980469 L 19.90625 -43.980469 L 19.90625 -55.035156 C 19.308594 -55.121094 18.800781 -55.207031 18.203125 -55.121094 C 13.269531 -55.121094 8.847656 -51.804688 8.847656 -46.359375 L 8.847656 -43.980469 L 3.402344 -43.980469 Z M 3.402344 -34.792969 " />
      </g>
    </g>
  </g>
  <g fill="#002838" fill-opacity="1">
    <g transform="translate(175.121238, 296.622725)">
      <g>
        <path d="M 1.703125 -43.980469 L 1.703125 -33.941406 L 5.613281 -33.941406 L 5.613281 0 L 16.671875 0 L 16.671875 -33.941406 L 19.226562 -33.941406 C 25.605469 -33.941406 27.222656 -38.703125 26.625 -43.980469 L 16.671875 -43.980469 L 16.671875 -46.191406 C 16.671875 -49.167969 19.226562 -50.101562 21.777344 -50.1875 C 23.648438 -50.1875 25.519531 -49.59375 26.285156 -48.914062 C 28.582031 -56.652344 24.414062 -60.226562 16.332031 -60.226562 C 8.507812 -60.226562 5.613281 -54.78125 5.613281 -46.617188 L 5.613281 -43.980469 Z M 1.703125 -43.980469 " />
      </g>
    </g>
  </g>
  <g fill="#002838" fill-opacity="1">
    <g transform="translate(202.934098, 296.622725)">
      <g>
        <path d="M 5.105469 0 L 16.164062 0 L 16.164062 -59.546875 C 15.480469 -59.628906 14.886719 -59.714844 14.289062 -59.714844 C 9.015625 -59.714844 5.105469 -55.71875 5.105469 -50.867188 Z M 5.105469 0 " />
      </g>
    </g>
  </g>
  <g fill="#002838" fill-opacity="1">
    <g transform="translate(224.197746, 296.622725)">
      <g>
        <path d="M 2.976562 -21.519531 C 2.976562 -7.402344 13.015625 1.105469 23.476562 1.105469 C 28.410156 1.105469 33.429688 -0.765625 37.511719 -4.847656 L 37.511719 0 L 48.570312 0 L 48.570312 -44.0625 L 37.511719 -44.0625 L 37.511719 -26.03125 C 37.511719 -18.035156 34.960938 -9.015625 25.691406 -9.015625 C 17.863281 -9.015625 14.035156 -15.3125 14.035156 -21.691406 C 14.035156 -28.328125 18.203125 -35.046875 26.371094 -35.046875 C 29.175781 -35.046875 33.261719 -34.28125 35.132812 -31.472656 C 35.640625 -32.324219 35.898438 -33.429688 35.898438 -34.875 C 35.8125 -41.511719 31.046875 -45.167969 23.5625 -45.167969 C 12.929688 -45.167969 2.976562 -35.558594 2.976562 -21.519531 Z M 2.976562 -21.519531 " />
      </g>
    </g>
  </g>
  <g fill="#002838" fill-opacity="1">
    <g transform="translate(277.016667, 296.622725)">
      <g>
        <path d="M 4.253906 0 L 15.3125 0 L 15.3125 -25.605469 C 15.3125 -31.730469 20.246094 -34.875 24.414062 -34.875 C 26.710938 -34.875 28.753906 -33.855469 29.515625 -31.8125 C 34.367188 -35.386719 31.984375 -45.253906 23.050781 -45.253906 C 19.480469 -45.253906 16.929688 -43.46875 15.226562 -40.40625 L 15.226562 -43.980469 L 4.253906 -43.980469 Z M 4.253906 0 " />
      </g>
    </g>
  </g>
  <g fill="#002838" fill-opacity="1">
    <g transform="translate(311.123583, 296.622725)">
      <g>
        <path d="M 2.976562 -21.945312 C 2.976562 -8.675781 12.589844 0.9375 26.371094 0.9375 C 33.003906 0.9375 38.449219 -1.277344 42.53125 -5.699219 L 36.152344 -13.015625 C 33.34375 -10.292969 29.433594 -9.78125 25.859375 -9.78125 C 18.96875 -9.78125 14.035156 -14.546875 14.035156 -22.117188 C 14.035156 -29.859375 19.140625 -34.367188 27.730469 -34.367188 C 33.34375 -34.367188 35.726562 -31.984375 35.726562 -29.6875 C 35.726562 -26.113281 31.644531 -24.074219 25.859375 -24.074219 C 23.050781 -24.074219 19.734375 -25.347656 17.011719 -27.730469 C 16.503906 -26.457031 16.246094 -25.265625 16.246094 -23.988281 C 16.246094 -18.628906 21.097656 -15.054688 28.328125 -15.054688 C 38.023438 -15.054688 45.339844 -21.519531 45.339844 -30.199219 C 45.339844 -38.789062 38.023438 -44.746094 26.878906 -44.746094 C 13.015625 -44.746094 2.976562 -35.558594 2.976562 -21.945312 Z M 2.976562 -21.945312 " />
      </g>
    </g>
  </g>
</svg>