<?xml version="1.0" encoding="utf-8"?>
<!-- Created with Inkscape (http://www.inkscape.org/) -->
<svg width="512" height="512" version="1.2" viewBox="0 0 512 512" baseProfile="tiny-ps" xmlns="http://www.w3.org/2000/svg">
  <title> BoltFlare</title>
  <path d="m6 256v-250h500v500h-500z" fill="#fefefe" />
  <path d="m62.714 402.87c-2.632-0.39338-6.3703-1.6502-8.3072-2.793-4.2835-2.5274-4.0575-2.5236-4.6971-0.0778-0.46426 1.7753-1.364 2-8.0096 2-5.9043 0-7.6149-0.33431-8.0936-1.5818-0.33384-0.87-0.60699-16.634-0.60699-35.032 0-37.089 0.23668-38.71 6.1898-42.387 2.0631-1.2742 4.6288-1.9417 6.8102-1.7719l3.5 0.27249 0.55458 28.445 3.9006-3.9006c2.9645-2.9645 5.001-4.0656 8.4856-4.5882 4.735-0.71006 11.79 0.5741 16.46 2.9961 4.5819 2.3762 10.303 8.7542 12.988 14.481 3.4797 7.4195 3.7119 20.133 0.49528 27.117-5.6686 12.308-16.974 18.718-29.67 16.82zm8.3794-16.419c4.4593-2.306 6.898-7.0051 6.9024-13.3 0.0076-10.874-5.37-16.545-14.996-15.814-3.025 0.22983-7.2399 1.0354-9.3664 1.7903l-3.8664 1.3724 0.4932 8.0482c0.80666 13.163 5.2589 19.319 14.039 19.412 2.0898 0.022 5.1472-0.65681 6.7942-1.5085zm260.05 16.366c-22.663-3.8977-30.805-35.192-14.104-54.214 9.2833-10.573 27.598-11.567 34.816-1.8895l2.0775 2.7854 0.0317-3.05c0.0174-1.6775 0.57168-3.59 1.2317-4.25 1.5664-1.5664 13.034-1.5664 14.6 0 1.712 1.712 1.712 56.888 0 58.6-0.70123 0.70123-4.0652 1.2-8.0936 1.2-6.0526 0-6.9574-0.24399-7.4166-2-0.64127-2.4522-0.33883-2.4636-5.4583 0.20485-5.0752 2.6454-11.756 3.6325-17.685 2.6129zm15.767-17.559c4.1298-3.0141 6.2622-8.5116 6.8179-17.577l0.50154-8.1819-3.8664-1.2979c-7.557-2.5368-10.411-2.9813-13.978-2.1769-4.4765 1.0096-8.9772 5.199-10.481 9.7564-1.5321 4.6422-0.63473 12.756 1.7744 16.043 4.4778 6.1103 13.386 7.7009 19.232 3.4342zm-225.85 15.6c-6.311-2.4814-13.791-9.4546-17.13-15.97-2.7124-5.2926-3.7529-16.874-1.9947-22.202 0.65108-1.9728 2.8414-5.0423 4.8675-6.8212 2.1607-1.8971 3.5598-3.9659 3.3839-5.0038-0.19042-1.124 1.2059-2.8602 3.8275-4.7593 15.686-11.363 37.041-6.2723 46.486 11.082 2.3244 4.2707 2.9624 6.8649 3.3081 13.451 0.37472 7.1393 0.11327 8.8484-2.0897 13.66-3.0766 6.7201-8.7437 12.56-15.299 15.766-6.938 3.3926-17.884 3.7366-25.36 0.79689zm18.529-15.903c5.0844-2.4613 7.4102-6.7352 7.405-13.607-7e-3 -8.5822-6.3251-15.337-14.353-15.345-3.29-3e-3 -3.7479 0.25349-3.1148 1.7463 1.8312 4.3179 1.1462 5.7451-2.8112 5.8567-5.3977 0.15231-8.7169 3.5158-8.7169 8.8332 0 11.508 10.773 17.753 21.591 12.516zm-16.862-32.56c-0.3323-0.33229-1.1948-0.36781-1.9167-0.0789-0.79773 0.31922-0.56078 0.55618 0.60417 0.60416 1.0542 0.0434 1.6448-0.19293 1.3125-0.52522zm94.212 49.666c-9.4013-2.8906-10.312-5.244-10.766-27.812-0.36238-18.037-0.39238-18.25-2.5713-18.25-3.4084 0-4.6046-1.9484-4.6046-7.5 0-5.5464 1.1964-7.5 4.593-7.5 2.2431 0 3.407-1.717 3.407-5.026 0-2.8492 4.0593-6.9054 8.3909-8.3845 6.4538-2.2037 7.4782-1.3824 7.8158 6.2658l0.29329 6.6447 4 0.26654c7.7044 0.51339 8.5 0.95298 8.5 4.6968 0 4.4536-3.5628 8.5937-8.6131 10.009l-3.8869 1.0891-0.28849 12.969c-0.15867 7.1332-0.0236 14.038 0.30027 15.344 0.53479 2.1567 0.99499 2.3286 5.0198 1.875 5.2623-0.59314 7.0251 0.86924 6.0124 4.9877-1.8675 7.595-10.332 12.56-17.602 10.325zm226.48-1.0604c-11.595-4.595-18.483-14.301-19.223-27.09-0.63319-10.938 1.5004-16.795 8.7091-23.907 7.1549-7.0588 13.54-9.5392 24.245-9.4189 6.2173 0.0699 8.715 0.60479 13.301 2.8485 8.054 3.9404 11.044 8.721 11.044 17.656 0 5.8748-0.38508 7.2848-3.0092 11.018-4.4142 6.2806-11.06 9.3978-19.964 9.3644-8.2107-0.0308-12.629-1.9527-15.567-6.7722-1.8077-2.9648-1.9523-3.0278-1.9558-0.85258-0.0124 7.7952 8.0779 13.894 17.026 12.834 2.6747-0.31678 6.1702-1.2519 7.7678-2.078 3.4468-1.7824 5.225-0.88679 9.5826 4.8262 3.4104 4.4713 2.6537 6.1432-4.5593 10.073-7.1516 3.8966-19.622 4.5781-27.396 1.4973zm21.321-35.571c1.7122-1.1219 2.2887-2.3066 2.065-4.2438-0.62516-5.4129-13.042-6.5422-20.01-1.8199-3.8224 2.5906-4.4716 4.1574-2.0915 5.0478 0.98499 0.36848 3.3659 1.3239 5.2909 2.1232 4.1233 1.712 11.261 1.176 14.745-1.1074zm-290.51 35.408c-1.627-1.627-1.7852-67.267-0.17238-71.524 1.6104-4.2502 4.8668-7.2201 9.1946-8.3854 7.047-1.8976 6.7934-3.4953 6.5002 40.952l-0.26136 39.618-7.011 0.28899c-4.5937 0.18934-7.4382-0.13821-8.25-0.95zm72.428 0.49434c-0.36667-0.36666-0.66667-10.443-0.66667-22.392v-21.725l-2.5-0.62746c-2.3672-0.59413-2.5-0.99733-2.5-7.5894s0.13282-6.9952 2.5-7.5894c2.1581-0.54166 2.503-1.1938 2.522-4.769 0.0303-5.714 3.1888-12.178 7.1699-14.674 2.6851-1.6833 4.5731-2.011 10.025-1.7399 5.8375 0.29032 7.1194 0.72008 9.7954 3.2838 2.6819 2.5694 3.0408 3.5325 2.7835 7.4692l-0.29537 4.5194-3.7604-0.2213c-5.1632-0.30386-8.7396 1.2088-8.7396 3.6966 0 1.7783 0.64507 2.0248 5.3 2.0248 6.1303 0 7.7 1.1463 7.7 5.6233 0 4.6332-4.1668 9.2198-9.0912 10.007l-3.9088 0.62504v21.172c0 15.134-0.34224 21.514-1.2 22.372-1.2617 1.2617-13.958 1.7091-15.133 0.53333zm36.572-0.49434c-1.627-1.627-1.7852-67.267-0.17238-71.524 1.6104-4.2502 4.8668-7.2201 9.1946-8.3854 7.047-1.8976 6.7934-3.4953 6.5002 40.952l-0.26136 39.618-7.011 0.28899c-4.5937 0.18934-7.4382-0.13821-8.25-0.95zm97.428 0.49434c-0.36667-0.36666-0.66667-13.552-0.66667-29.3 0-20.937 0.32255-28.956 1.2-29.833 1.4685-1.4685 11.207-1.5877 13.857-0.16965 1.4143 0.75689 2.7107 0.62418 4.8846-0.5 1.6276-0.84169 4.7883-1.5304 7.0237-1.5304 3.2335 0 4.828 0.6998 7.7997 3.4232 3.2891 3.0142 3.7353 3.9796 3.7353 8.0806 0 5.8159-2.4725 8.3294-5.8597 5.9568-4.3643-3.0569-12.219-0.87569-14.446 4.0115-0.78292 1.7183-1.1947 8.7409-1.1947 20.375 0 12.475-0.35679 18.11-1.2 18.953-1.2617 1.2617-13.958 1.7091-15.133 0.53333zm-136.67-104.3c-36.151-4.6942-66.77-24.353-85.042-54.601-4.6817-7.7502-8.9581-16.588-8.9581-18.513 0-1.8702 2.1502-0.78719 8.245 4.153 24.976 20.245 60.877 21.116 93.328 2.2637 11.512-6.6879 24.857-20.379 29.993-30.772 3.519-7.1203 3.907-8.6693 3.907-15.598 0-6.7134-0.41211-8.4919-3.2368-13.969-5.0054-9.7052-4.3702-12.086 4.3834-16.43 10.522-5.221 26.738-7.7847 40.19-6.3539 10.836 1.1526 20.477 5.8828 28.591 14.028 22.874 22.961 18.361 61.476-11.401 97.294-15.059 18.123-37.657 31.342-62.5 36.56-10.56 2.218-28.288 3.134-37.5 1.9378zm-54.832-62.565c-3.4827-0.75596-9.7827-3.0727-14-5.1484-9.7639-4.8055-21.945-16.568-28.264-27.293-4.2583-7.2273-4.415-7.791-4.7414-17.051-1.0522-29.857 12.75-61.437 36.929-84.492 14.714-14.03 29.336-22.169 48.617-27.06 16.257-4.1238 18.212-3.0474 7.4016 4.0744-8.743 5.7599-19.846 17.411-24.429 25.636-11.071 19.867-12.765 43.863-4.5656 64.692 5.4105 13.744 15.776 27.328 28.113 36.842 6.5841 5.0777 11.393 7.3015 17.759 8.2127 6.6006 0.94471 6.3456 3.0648-0.95535 7.9401-19.204 12.824-42.243 17.907-61.865 13.647zm30.853-57.434c-17.281-26.93-13.771-61.319 8.5367-83.627 11.055-11.055 26.616-18.338 43.967-20.578 7.0185-0.906 9.4761-0.81947 14.815 0.52159 20.783 5.2205 41.763 19.098 58.8 38.893 6.7974 7.8978 7.6179 11.561 3.2332 14.434-2.5351 1.661-2.8956 1.6225-10.25-1.0956-12.391-4.5797-17.905-5.6018-30.638-5.6796-14.018-0.0856-21.798 1.1402-32.86 5.1773-24.587 8.9733-44.525 29.904-48.745 51.173-0.66862 3.3704-1.6645 5.75-2.4063 5.75-0.69611 0-2.7001-2.2354-4.4534-4.9677z" fill="#99a8ae" />
  <path d="m55.596 399.5c-5.6936-3.0273-6.2159-3.0616-6.8982-0.45246-0.48388 1.8504-1.1933 2.0189-7.3666 1.75l-6.8312-0.29754v-71.655l3.8004-3.4821c2.9749-2.7257 4.4954-3.4148 7-3.1725l3.1996 0.3096 0.5 27c0.46067 24.876 0.66416 27.315 2.587 31 5.5913 10.717 19.24 11.393 25.418 1.2591 2.5514-4.1846 2.6709-12.907 0.24304-17.739-3.6241-7.2133-14.17-10.396-21.603-6.5191-3.4342 1.7911-4.6459 1.2281-4.6459-2.1587 0-4.72 3.0846-9.4761 7.4241-11.447 7.65-3.4745 17.372-1.4671 24.874 5.1358 15.815 13.921 13.376 41.475-4.4578 50.362-7.2487 3.6122-16.571 3.6553-23.244 0.10754zm65.77 0.48195c-6.9857-2.769-14.718-10.634-17.337-17.633-4.117-11.004-1.7794-23.358 5.0919-26.912 6.202-3.2072 16.265-1.549 19.372 3.1921 1.7518 2.6735 1.1261 4.8221-1.1499 3.9487-2.1873-0.83936-8.0197 1.9494-9.3757 4.483-1.6522 3.0871-0.67499 11.503 1.7142 14.763 4.5151 6.1611 13.722 7.8832 20.819 3.894 4.8978-2.7533 7.4964-7.6078 7.4984-14.008 0.00314-9.682-6.6574-16.71-15.836-16.71-2.1546 0-4.4172-0.60217-5.028-1.3382-1.6701-2.0124-8.8948-3.8734-12.21-3.1452-6.4312 1.4125-0.94047-4.5627 6.9466-7.5596 20.196-7.6738 41.18 7.554 41.107 29.83-0.0371 11.335-5.8412 20.48-16.478 25.963-6.9216 3.5678-17.885 4.1052-25.134 1.2318zm95.079 0.95996c-4.3163-1.2688-7.5559-5.1214-8.526-10.139-0.45751-2.3666-0.85145-11.39-0.8754-20.053l-0.04355-15.75h-2.3c-3.3516 0-4.7-1.8648-4.7-6.5 0-4.6277 1.3483-6.5 4.681-6.5 1.6761 0 2.4401-0.72922 2.8813-2.75 1.6864-7.7251 5.2258-11.25 11.296-11.25h3.05l0.59138 13.5 6 0.5c5.6953 0.47461 6.0164 0.64293 6.3227 3.3146 0.48868 4.2629-2.1814 7.438-7.5766 9.0098l-4.746 1.3826-0.27754 14.161c-0.33225 16.952 0.15258 18.402 6.0084 17.98 5.3062-0.38312 6.5378 1.3772 4.4536 6.3654-2.2859 5.4708-9.8531 8.6064-16.24 6.7291zm108.93-0.98633c-5.4363-2.691-10.712-8.071-13.543-13.812-1.8664-3.7843-2.2938-6.3083-2.31-13.643-0.0169-7.6392 0.37487-9.8416 2.5908-14.567 2.7613-5.8878 8.4295-12.117 13.344-14.665 1.6252-0.84252 5.7496-1.7562 9.1655-2.0304 10.603-0.85111 18.38 4.6933 18.38 13.104 0 3.4274-1.4288 4.0783-4.5142 2.0566-3.7985-2.4888-12.396-2.2352-16.816 0.49615-9.2829 5.7371-10.253 21.229-1.7767 28.362 5.7417 4.8313 12.454 4.8461 18.165 0.0401 5.341-4.4941 6.2579-7.9989 6.8801-26.297l0.56102-16.5 6.0914-0.2936c4.323-0.20837 6.4324 0.11729 7.266 1.1218 0.8522 1.0268 1.1016 9.0686 0.90863 29.294l-0.26604 27.878-6.7573 0.29586c-6.3586 0.27839-6.8118 0.15266-7.6799-2.1307l-0.92257-2.4266-5.711 2.8807c-7.2608 3.6624-16.658 4.0033-23.056 0.83628zm117.96 0.0105c-10.828-4.2865-17.377-13.718-18.116-26.093-0.83418-13.962 4.3219-23.058 16.456-29.031 5.8222-2.8663 7.5268-3.2376 14.708-3.2042 9.0223 0.0419 14.296 1.7535 18.996 6.1653 5.4138 5.0817 7.1717 13.564 4.257 20.54-4.8777 11.674-24.479 16.599-33.156 8.3313-3.521-3.3548-5.1098-8.1765-3.5141-10.665 0.83117-1.296 1.3856-1.2346 4.2482 0.47094 4.6507 2.7709 13.712 2.7165 17.491-0.10494 6.9282-5.1726 0.66231-12.3-9.5752-10.892-9.621 1.3232-15.115 7.1434-15.119 16.017-3e-3 6.9898 2.52 11.508 7.9566 14.25 5.1019 2.5728 9.7941 2.7905 15.538 0.72116 5.8744-2.1163 6.754-1.8849 10.282 2.7049 3.0783 4.0052 3.1382 4.2551 1.464 6.1064-5.7076 6.3114-21.828 8.6771-31.917 4.6836zm-268.62 0.4082c-0.38919-0.38918-0.70762-15.947-0.70762-34.573 0-36.364 0.29935-38.819 5.1136-41.939 3.1658-2.0512 7.1052-2.9634 8.6566-2.0046 0.97745 0.60409 1.1959 9.3516 0.99169 39.708l-0.26191 38.934-6.5424 0.29096c-3.5983 0.16002-6.8608-0.0275-7.25-0.41667zm73 0c-0.38919-0.38918-0.70762-10.319-0.70762-22.066v-21.358l-2.5-0.9505c-2.2864-0.86929-2.5-1.4673-2.5-7 0-5.431 0.24046-6.1409 2.3517-6.9436 1.9583-0.74453 2.4462-1.809 2.9161-6.3627 1.0906-10.567 5.2885-14.697 14.932-14.69 8.7754 6e-3 13.606 4.2677 12.633 11.145-0.29407 2.0775-0.87263 2.3549-4.9622 2.3791-5.3128 0.0314-7.8707 1.6872-7.8707 5.0951 0 2.2406 0.34741 2.3776 6.0314 2.3776 6.7985 0 7.6034 0.80284 6.5318 6.5151-0.72574 3.8685-3.694 6.3558-8.8382 7.4062l-3.225 0.6585-0.5 21.96-0.5 21.96-6.5424 0.29096c-3.5983 0.16002-6.8608-0.0275-7.25-0.41667zm36 0c-0.38919-0.38918-0.70762-15.947-0.70762-34.573 0-36.364 0.29935-38.819 5.1136-41.939 3.1658-2.0512 7.1052-2.9634 8.6566-2.0046 0.97745 0.60409 1.1959 9.3516 0.99169 39.708l-0.26191 38.934-6.5424 0.29096c-3.5983 0.16002-6.8608-0.0275-7.25-0.41667zm97.762-0.59178c-0.27637-0.72023-0.38269-13.903-0.23626-29.296l0.26623-27.986 5.4548-0.30936c3.0002-0.17015 6.4264 0.21059 7.6138 0.8461 1.7116 0.91599 2.7987 0.82466 5.2455-0.44064 1.6976-0.87786 4.9435-1.5961 7.2131-1.5961 7.036 0 12.761 7.7787 10.071 13.683-0.92422 2.0284-1.5995 2.3893-3.3769 1.8047-1.2219-0.40194-4.0811-0.94218-6.3537-1.2005-3.5354-0.40191-4.6183-0.0356-7.5 2.5372l-3.368 3.007-0.5 19.834-0.5 19.834-6.7637 0.296c-4.8727 0.21325-6.9042-0.0701-7.2662-1.0135zm-137.47-103.8c-20.103-2.3735-40.381-10.533-56-22.534-7.5205-5.7782-19.801-18.683-24.69-25.945-4.8187-7.1584-11.551-20.278-11.1-21.631 0.17634-0.52902 3.0137 1.1501 6.3052 3.7314 7.8386 6.1473 20.086 11.847 29.692 13.818 36.491 7.4872 79.782-13.169 95.187-45.419 2.6407-5.528 3.1012-7.6325 3.0794-14.073-0.0219-6.4806-0.49073-8.5178-3.25-14.123-4.8035-9.7573-4.3794-11.231 4.5198-15.705 8.394-4.2203 20.585-6.347 33.892-5.9123 11.58 0.37831 12.476 0.56424 19.545 4.0584 11.977 5.9195 20.562 15.378 25.097 27.649 1.69 4.5738 2.0688 7.9081 2.057 18.106-0.0167 14.318-2.032 22.159-9.378 36.483-16.221 31.631-45.076 53.53-79.012 59.968-10.217 1.938-26.581 2.6338-35.945 1.5283zm-55.5-62.872c-18.157-4.5284-32.533-16.252-42.003-34.253-3.2418-6.162-3.4965-7.3-3.4965-15.619 0-23.238 8.3592-47.267 23.407-67.286 16.298-21.682 37.865-36.014 63.276-42.049 8.9487-2.1253 11.489-1.7941 7.3528 0.95886-13.938 9.278-22.865 18.982-29.104 31.641-16.983 34.457-6.2194 74.833 26.545 99.57 5.703 4.3058 13.918 7.93 17.975 7.93 4.0731 0 3.8404 1.7748-0.66362 5.061-17.94 13.09-43.964 18.865-63.288 14.046zm32.699-55.857c-9.3868-13.323-13.412-34.204-9.7587-50.625 5.3868-24.213 25.113-44.247 49.773-50.551 17.477-4.4681 25.428-3.6306 42.654 4.4926 16.127 7.6049 30.982 19.164 41.74 32.479 5.6151 6.9496 6.4735 9.731 3.8219 12.383-2.14 2.14-3.26 2.0139-11.653-1.312-10.34-4.0975-17.231-5.284-30.582-5.2648-24.583 0.0354-44.504 7.7097-61.007 23.503-9.4228 9.0174-17.993 22.391-19.639 30.646-1.6151 8.1002-2.2704 8.6208-5.3499 4.25z" fill="#738891" />
  <path d="m59.764 401c-1.5048-0.4531-4.3409-1.8158-6.3026-3.0281s-3.6555-2.0405-3.764-1.8402c-2.2882 4.2202-2.5447 4.3716-7.891 4.6592-3.8953 0.20954-5.8407-0.13149-6.7074-1.1758-0.92198-1.1109-1.1447-9.761-0.9099-35.341 0.27827-30.318 0.49542-34.152 2.0703-36.553 2.1249-3.2403 7.0686-5.9609 10.058-5.5352 2.1686 0.30873 2.1855 0.48337 2.6823 27.811 0.48279 26.553 0.5807 27.641 2.8443 31.59 1.2893 2.2495 3.7275 4.9072 5.4181 5.9058 3.7354 2.2065 10.372 2.2617 14.512 0.12064 10.879-5.6257 10.067-25.126-1.2744-30.616-5.0224-2.4313-8.1777-2.513-13.579-0.35177-4.7272 1.8914-6.2723 0.82652-5.2811-3.64 1.4791-6.665 6.5468-10.151 14.757-10.151 10.293 0 18.744 5.6195 23.753 15.795 2.7816 5.6502 3.2175 7.5793 3.2069 14.194-0.02021 12.664-5.4578 21.843-15.856 26.767-5.1792 2.4526-12.345 3.0148-17.736 1.3916zm63.568-0.79185c-2.8422-1.0171-6.8104-3.1024-8.8184-4.6339-12.679-9.6706-16.576-29.397-7.5214-38.072 2.4358-2.3336 4.0952-2.9555 8.7563-3.2817 4.8121-0.33669 6.3213-0.0149 9.2441 1.9713 4.6936 3.1895 5.1873 5.8033 1.096 5.8033-1.9278 0-4.2026 1.0231-6.1567 2.769-2.5952 2.3188-3.0981 3.4977-3.093 7.25 0.0124 9.1132 4.8597 14.957 13.06 15.745 6.545 0.62889 9.3419-0.15891 13.488-3.7991 10.526-9.2416 4.0026-28.952-9.5871-28.969-1.8148-2e-3 -5.5134-1.1273-8.2191-2.5-2.7556-1.398-6.641-2.4958-8.8333-2.4958-5.3779 0-4.4814-1.7854 2.7617-5.5 15.718-8.0611 34.992-0.0345 41.537 17.298 5.2894 14.008-1.0502 30.143-14.412 36.68-7.1639 3.505-16.425 4.1941-23.301 1.7337zm204.3 0.31939c-8.8201-3.144-15.827-11.824-17.691-21.916-4.1333-22.374 15.173-43.193 33.546-36.176 5.7342 2.1899 8.5176 5.6848 8.5176 10.695 0 4.0077-1.4563 5.0088-3.8313 2.6339-0.71353-0.71353-3.9191-1.2392-7.6233-1.25-6.8992-0.0202-9.9598 1.4769-13.953 6.825-2.8769 3.8533-3.3783 14.845-0.89572 19.636 5.6926 10.987 20.875 10.714 26.716-0.48007 1.7923-3.4352 2.1576-6.3296 2.587-20.5l0.5-16.5 13.531-0.59208-0.53082 57.592-6.2192 0.29692c-5.9363 0.28341-6.2482 0.18107-6.8584-2.25-0.76091-3.0317-1.7316-3.1607-5.268-0.69987-6.0749 4.2272-15.162 5.3102-22.527 2.6848zm118.6 0.0639c-8.2298-2.6949-14.126-7.6346-18.019-15.096-3.5276-6.761-3.8128-19.627-0.5875-26.5 4.734-10.088 14.137-16.087 26.312-16.786 12.748-0.73135 20.727 2.7286 24.89 10.794 6.6006 12.786-3.9675 27.17-20.05 27.288-9.8468 0.0724-15.769-4.066-15.769-11.019 0-3.7486 1.1199-4.0621 5.9333-1.6609 4.0064 1.9986 12.732 1.4879 16.475-0.96431 3.1984-2.0957 3.478-6.5406 0.57662-9.1663-3.1278-2.8306-11.674-3.1593-17.311-0.66568-12.346 5.4613-12.632 23.448-0.47299 29.775 3.652 1.9001 11.841 1.7724 16.93-0.26403l4.1713-1.669 3.4119 3.723c1.8765 2.0476 3.2667 4.4862 3.0893 5.419s-2.6941 2.9692-5.5926 4.5254c-6.4316 3.453-17.244 4.4746-23.987 2.2664zm-270.51-0.2201c-0.38993-0.38993-0.70896-16.654-0.70896-36.142v-35.433l3.4659-3.4659c2.7879-2.7879 4.1084-3.4041 6.75-3.15l3.2841 0.3159v78l-6.041 0.29229c-3.3226 0.16076-6.3601-0.0267-6.75-0.41666zm38.054-0.88358c-5.1232-2.8874-5.7626-5.6878-5.7626-25.242 0-18.892-0.31504-20.25-4.7-20.25-2.1212 0-2.3-0.42754-2.3-5.5 0-5.1645 0.14888-5.5 2.441-5.5 2.8558 0 3.7016-1.0814 5.059-6.4686 1.166-4.6276 6.4101-8.8 10.466-8.327 2.3985 0.27977 2.5503 0.65721 2.8299 7.038 0.32691 7.4587 0.29656 7.4308 8.7045 7.9911 3.738 0.24908 3.9864 0.45583 3.7925 3.1568-0.25763 3.589-3.8955 7.6097-6.8851 7.6097-5.3847 0-5.4075 0.06958-5.4075 16.536 0 17.799 0.50248 19.062 7.1363 17.941 3.7881-0.64 3.8637-0.59269 3.8637 2.4194 0 1.9602-1.025 4.2193-2.832 6.2417-2.3979 2.6837-3.6625 3.2253-8.25 3.5332-3.6195 0.24291-6.3267-0.14851-8.1554-1.1792zm33.946 0.88358c-0.38993-0.38993-0.70896-10.525-0.70896-22.523v-21.814l-2.5-0.62746c-2.2815-0.57261-2.5-1.1006-2.5-6.0405 0-4.7326 0.29955-5.5495 2.383-6.4988 1.9647-0.89518 2.4955-2.0806 3.0242-6.7538 1.218-10.765 6.7033-15.799 16.155-14.823 7.9099 0.81637 11.438 3.9791 11.438 10.253 0 2.2664-0.36845 2.453-4.845 2.453-5.5308 0-8.5307 2.317-7.9854 6.1675 0.29456 2.0797 0.98056 2.3866 6.3304 2.8325l6 0.5-0.15684 3.3364c-0.1937 4.1204-3.7815 8.1582-7.2675 8.1789-5.4992 0.0327-5.5359 0.17589-6.0757 23.697l-0.5 21.788-6.041 0.29229c-3.3226 0.16076-6.3601-0.0267-6.75-0.41666zm37 0c-0.38993-0.38993-0.70896-16.654-0.70896-36.142v-35.433l3.4659-3.4659c2.7879-2.7879 4.1084-3.4041 6.75-3.15l3.2841 0.3159v78l-6.041 0.29229c-3.3226 0.16076-6.3601-0.0267-6.75-0.41666zm96.762-0.59177c-0.27695-0.72173-0.38363-13.681-0.23705-28.798l0.2665-27.486 6.3373-0.29998c3.854-0.18244 6.8982 0.16554 7.7688 0.88801 1.1245 0.93326 1.8167 0.83931 3.2283-0.43814 2.1965-1.9878 7.2601-3.094 10.472-2.2878 1.3091 0.32856 3.5756 1.7929 5.0368 3.254 2.0696 2.0695 2.6566 3.6278 2.6566 7.0516 0 5.1405-1.6138 6.2866-5.3786 3.8199-3.0148-1.9754-7.2704-1.3382-11.081 1.6591-4.6191 3.6334-5.0116 5.3944-5.5391 24.853l-0.50154 18.5-6.2629 0.29805c-4.4686 0.21267-6.4072-0.0779-6.7665-1.0142zm-144.97-105.26c-34.676-6.7853-63.222-27.688-79.823-58.449-5.2685-9.763-4.6046-11.021 2.8226-5.3479 12.638 9.6535 27.32 14.405 44.499 14.4 32.196-8e-3 65.513-18.961 78.564-44.693 3.6805-7.2568 3.9375-8.3274 3.9375-16.404 0-7.849-0.31181-9.2543-3.4054-15.347-2.8583-5.6297-3.2309-7.09-2.3195-9.0903 3.3985-7.4589 33.061-13.854 49.374-10.645 16.723 3.2901 30.748 15.844 36.089 32.302 2.9292 9.0274 2.839 23.529-0.21529 34.615-2.6828 9.7375-9.8567 24.333-16.669 33.913-10.841 15.246-29.562 30.373-46.123 37.267-14.877 6.1932-24.981 8.1878-43.231 8.5342-11.105 0.21075-18.789-0.13473-23.5-1.0566zm-42.119-60.525c-18.835-2.7598-34.992-14.079-45.917-32.169l-4.9645-8.2202 0.0853-11.555c0.0469-6.3555 0.63817-14.255 1.3139-17.555 8.9845-43.878 41.194-78.956 82.278-89.606 11.439-2.9652 12.459-2.2375 4.6617 3.3267-30.934 22.074-41.083 62.373-24.212 96.139 4.9091 9.8247 8.7789 15.173 16.807 23.23 8.8944 8.9259 16.419 13.903 23.967 15.854 3.2458 0.83886 6.17 1.7939 6.4984 2.1222 1.5851 1.5851-14.796 10.767-25.766 14.442-13.117 4.3945-23.704 5.6106-34.752 3.9918zm26.215-58.25c-7.4061-12.648-10.109-22.595-9.9872-36.75 0.0753-8.7515 0.56624-11.911 2.9481-18.976 8.7667-26.002 32.864-44.076 61.003-45.755 10.393-0.62005 14.384 0.16948 26.562 5.2544 15.302 6.3895 32.047 19.328 45.011 34.778 5.4466 6.4914 5.9813 8.9226 2.4688 11.224-2.2342 1.4639-2.8363 1.3943-8.75-1.0115-9.7226-3.9554-17.175-5.5902-28.242-6.1952-28.253-1.5446-57.168 10.965-73.05 31.605-6.391 8.3056-11.394 17.924-12.696 24.409-0.62596 3.1169-1.507 5.667-1.9579 5.667s-1.9396-1.9125-3.3083-4.25z" fill="#627a84" />
  <path d="m59.759 400.58c-2.0575-0.73433-4.9064-2.0988-6.3308-3.0321-2.8139-1.8438-5.4283-1.4504-5.4283 0.81666 0 1.7653-2.151 2.6384-6.5 2.6384-6.9374 0-6.5 2.3996-6.5-35.657 0-38.198 0.08112-38.73 6.3571-41.709 6.7253-3.1914 6.3918-4.4231 6.7996 25.115 0.35301 25.571 0.47169 26.959 2.6921 31.493 3.2253 6.5858 7.2797 9.2708 13.899 9.2041 6.4183-0.0646 9.8512-2.3002 13.003-8.4676 5.8095-11.369-0.69242-24.595-12.656-25.745-2.9429-0.28278-6.0622 0.14285-8.4944 1.1591-4.881 2.0394-4.5993 2.1279-4.5993-1.4437 0-14.724 21.571-16.333 33.734-2.515 5.5804 6.3397 7.5729 12.624 7.0964 22.382-0.27538 5.6399-1.0316 8.9795-2.8444 12.561-5.7857 11.431-19.005 17.203-30.227 13.198zm69.241 0.74135c-13.021-2.2389-22.067-10.395-25.592-23.073-4.0058-14.408 3.0426-25.356 15.426-23.96 7.6326 0.8603 14.033 7.7152 7.2041 7.7152-9.9592 0-13.201 13.991-5.1151 22.077 7.5324 7.5324 21.829 5.0846 26.173-4.4815 5.0833-11.193-1.2505-23.466-12.94-25.074-2.7949-0.38439-6.7686-1.559-8.8306-2.6102s-5.7913-1.9296-8.2875-1.952l-4.5386-0.0406 3.3351-2.8532c6.1827-5.2894 17.988-6.8662 27.078-3.6167 6.5482 2.3408 12.292 7.5869 16.113 14.717 2.976 5.5528 3.3994 7.2587 3.434 13.834 0.0458 8.7121-2.2111 14.377-8.1738 20.517-5.9668 6.1438-17.466 10.147-25.287 8.8018zm200.36-0.3481c-6.7699-2.0903-12.675-7.1855-16.19-13.97-3.2601-6.2922-3.3549-6.8037-2.9651-16 0.28101-6.6309 0.95556-10.557 2.2335-13 5.5353-10.581 14.061-16.384 24.037-16.361 9.8185 0.0234 15.52 4.5461 15.52 12.311 0 3.5562 0.24635 3.4684-4.3458 1.5497-5.3441-2.2329-11.738-1.9184-15.733 0.7738-9.8753 6.655-11.482 19.779-3.4892 28.501 3.0316 3.308 3.8602 3.649 9.7837 4.0262 6.0917 0.38789 6.6801 0.22899 10.024-2.7072 5.6152-4.9302 6.8111-9.2914 7.4801-27.279l0.58817-15.814h12.691v28.393c0 31.785 0.55942 29.607-7.6032 29.607-3.7652 0-4.6127-0.37978-5.5787-2.5-1.4081-3.0905-1.5122-3.0891-7.212 0.0966-5.1706 2.8899-14.03 3.9828-19.241 2.3737zm119.05-0.0462c-18.649-4.4616-28.106-24.014-20.278-41.924 5.7336-13.119 22.687-20.102 37.997-15.651 22.8 6.6282 16.718 36.651-7.4246 36.651-9.7476 0-15.705-4.3434-15.705-11.45 0-2.9707 0.95176-3.1431 5.206-0.94312 2.2324 1.1544 4.9299 1.4904 9.5851 1.194 5.5584-0.35394 6.8142-0.803 8.8436-3.1623 2.8646-3.3303 2.9446-4.7013 0.45362-7.7775-1.7213-2.1257-2.7098-2.3608-9.9267-2.3608-6.5355 0-8.5248 0.38059-10.777 2.0618-4.7062 3.5137-6.6882 7.0298-7.1287 12.647-0.52503 6.6944 2.636 13.192 7.7529 15.936 4.2808 2.2958 14.259 2.4856 18.355 0.34918 3.9378-2.0537 4.055-2.0148 7.6688 2.548 3.1505 3.9778 3.1716 4.0751 1.334 6.1452-4.4233 4.9829-17.255 7.819-25.957 5.7372zm-272.16-0.5864c-1.5625-0.63048-1.8194-67.71-0.27493-71.772 1.853-4.8736 11.045-8.5626 12.418-4.9838 0.33385 0.86998 0.60699 18.105 0.60699 38.3 0 27.225-0.31024 37.028-1.2 37.918-1.1726 1.1726-9.066 1.54-11.55 0.53772zm39.25-0.29175c-1.1-0.45499-3.125-2.0365-4.5-3.5144-2.4498-2.6332-2.51-3.0821-3-22.359l-0.5-19.672-3.25-0.31336c-3.2246-0.3109-3.25-0.35542-3.25-5.6866 0-5.3271 0.0279-5.376 3.2385-5.6866 2.8752-0.27821 3.3047-0.72438 3.8286-3.9773 0.83905-5.2097 3.3077-8.4746 7.4387-9.838 5.5414-1.8288 6.3607-1.0089 6.6974 6.7026l0.29681 6.7994 5.5 0.30728c3.025 0.16901 5.8683 0.67229 6.3184 1.1184 0.99444 0.98559-1.596 7.5098-3.4324 8.6448-0.72494 0.44803-2.9084 1.0726-4.852 1.388l-3.534 0.57341-0.27598 15.85c-0.32195 18.49-0.0843 19.145 6.6178 18.226l4.4194-0.60575-0.58226 3.588c-0.71628 4.4139-2.2305 6.3229-6.3969 8.0644-3.5767 1.4951-7.7473 1.6463-10.782 0.39107zm32.7-0.24597c-0.8583-0.8583-1.2-7.2722-1.2-22.525v-21.325l-2.5-0.9505c-2.2111-0.84066-2.5-1.534-2.5-6 0-4.4364 0.29702-5.1624 2.4462-5.9796 1.8089-0.68775 2.6027-1.9188 3.0469-4.7252 0.33038-2.0874 0.83768-5.3254 1.1273-7.1957 0.71436-4.6126 5.0186-8.6938 10.069-9.547 8.456-1.4286 16.802 3.438 16.109 9.3928-0.26847 2.3049-0.8215 2.6073-5.656 3.0926-3.6698 0.36844-5.7969 1.1377-6.75 2.4411-3.0607 4.1858-0.83998 6.5209 6.2014 6.5209 6.0792 0 7.1213 1.3546 4.9817 6.4754-1.5373 3.6792-4.1457 5.5246-7.809 5.5246-4.5412 0-4.7657 1.1116-4.7657 23.593 0 18.403-0.20826 21.273-1.5818 21.8-2.7235 1.0451-9.9628 0.66243-11.218-0.59301zm37.05 0.53772c-1.5625-0.63048-1.8194-67.71-0.27493-71.772 1.853-4.8736 11.045-8.5626 12.418-4.9838 0.33385 0.86998 0.60699 18.105 0.60699 38.3 0 27.225-0.31024 37.028-1.2 37.918-1.1726 1.1726-9.066 1.54-11.55 0.53772zm96.95-0.53772c-0.87231-0.87231-1.2-8.3596-1.2-27.418 0-14.42 0.27314-26.93 0.60699-27.8 0.72975-1.9017 11.305-2.2697 13.118-0.45644 0.83379 0.83379 2.2628 0.57471 5.5157-1 5.2069-2.5206 6.9015-2.6201 10.748-0.63106 3.8302 1.9807 6.011 5.2562 6.011 9.0282 0 4.4566-1.5214 5.5629-5.1564 3.7496-3.3456-1.669-7.8421-1.1584-11.625 1.3202-4.4046 2.886-5.2188 6.906-5.2188 25.769 0 14.967-0.22314 17.511-1.5818 18.032-2.7235 1.0451-9.9628 0.66243-11.218-0.59301zm-138.7-104.47c-31.575-3.9404-60.67-21.131-78.404-46.326-5.6937-8.089-12.562-20.868-11.686-21.744 0.29631-0.29631 2.9127 1.253 5.8142 3.4429 7.5075 5.6663 11.289 7.7327 19.53 10.673 20.699 7.3847 45.229 4.8864 68.246-6.9508 16.559-8.5161 28.717-20.266 36.134-34.921 3.9495-7.8041 4.039-8.2082 3.6562-16.5-0.33803-7.3208-0.86225-9.3796-3.7788-14.841-2.5926-4.8545-3.1446-6.7296-2.3548-8 4.7786-7.687 30.448-13.881 47.012-11.344 19.143 2.9322 34.683 17.029 39.237 35.594 0.66226 2.7 1.1941 8.775 1.1818 13.5-0.0544 20.969-11.08 44.78-29.66 64.054-17.56 18.216-39.692 29.464-64.861 32.965-7.2675 1.0108-23.441 1.2251-30.066 0.39837zm-46.5-61.465c-9.1108-0.90874-14.438-2.4906-22.379-6.6455-8.3015-4.3433-16.235-11.4-22.06-19.621-8.8245-12.456-10.155-17.66-8.5402-33.393 2.6511-25.823 13.527-49.283 31.63-68.231 10.212-10.689 18.674-16.994 30.849-22.987 7.9956-3.9354 25.978-9.9683 29.75-9.981 1.8798-0.0063 0.37215 1.7339-3.7686 4.3499-5.6146 3.5471-15.168 12.874-19.186 18.731-18.191 26.519-18.608 59.957-1.0855 87.137 5.0529 7.8378 19.678 22.527 26.188 26.303 2.6941 1.5625 7.6262 3.5877 10.96 4.5003l6.0621 1.6594-4.4604 3.292c-14.192 10.474-36.498 16.628-53.96 14.886zm23.428-58.975c-11.534-18.271-12.907-42.465-3.5396-62.387 10.154-21.594 32.871-36.523 58.111-38.188 6.9823-0.46076 9.8096-0.16952 15.834 1.6312 17.28 5.1647 35.807 17.283 50.18 32.821 8.6401 9.341 10.474 12.455 8.9811 15.245-1.411 2.6364-4.2896 2.5108-12.037-0.52556-11.174-4.3792-20.886-5.8214-34.926-5.1866-23.14 1.0462-41.504 8.6126-57.402 23.65-9.3434 8.8381-18.852 24.335-20.234 32.977-0.35848 2.2418-1.0386 4.076-1.5114 4.076-0.47281 0-2.0282-1.8511-3.4564-4.1135z" fill="#4f6974" />
  <path d="m58.145 399.93c-1.2952-0.51874-3.6546-1.8687-5.2432-2.9998-3.1892-2.2709-4.902-1.8598-4.902 1.1765 0 1.8046-0.5787 1.9611-6.25 1.691l-6.25-0.29772v-70.665l3.2658-2.9173c2.0618-1.8418 4.366-2.9173 6.25-2.9173h2.9842v24.818c0 28.357 0.7119 32.571 6.4405 38.124 4.4702 4.3327 12.006 5.3047 17.559 2.2651 5.6315-3.0823 8.1416-8.3962 7.7586-16.425-0.35682-7.4819-2.0672-10.664-7.8506-14.604-2.8748-1.9587-4.3468-2.2553-9.4081-1.8956-3.3 0.23454-7.0829 0.78785-8.4064 1.2296-2.3276 0.77684-2.3861 0.67522-1.7847-3.1044 1.2237-7.6916 9.2572-11.774 18.823-9.5665 16.352 3.7746 25.567 21.339 20.373 38.831-1.8358 6.1818-8.4106 13.926-13.966 16.449-4.4011 1.9992-15.288 2.453-19.394 0.80852zm64.449-0.51553c-6.6566-2.1247-15.603-11.033-17.918-17.843-2.0726-6.0947-2.1691-15.717-0.19588-19.533 2.6136-5.0541 6.1436-7.0386 12.52-7.0386 4.283 0 6.3958 0.52347 8.3651 2.0726 1.4492 1.1399 2.6349 2.4187 2.6349 2.8417 0 0.42303-1.7759 1.3012-3.9464 1.9515-5.962 1.7862-8.3491 5.4285-7.8162 11.926 0.4603 5.6121 2.4567 9.1444 7.1477 12.647 3.9112 2.9201 14.319 2.9201 18.23 0 4.904-3.6614 6.7286-7.0384 7.1808-13.291 0.76652-10.597-4.8039-17.643-15.048-19.033-2.9457-0.39974-6.4402-1.4864-7.7656-2.4147-1.3254-0.92834-4.6229-1.9815-7.3277-2.3403l-4.9179-0.65239 2.3818-1.8248c6.2772-4.8093 17.677-6.1912 26.454-3.2067 6.7022 2.2792 15.473 11.05 17.752 17.752 6.6851 19.658-5.5579 38.251-25.824 39.218-4.4673 0.21316-8.7749-0.23251-11.906-1.2318zm93.499 0.27904c-1.8735-0.65646-4.3485-2.4639-5.5-4.0166-1.922-2.5916-2.1228-4.4117-2.4487-22.194l-0.35506-19.371-3.1449-0.30553c-3.0665-0.2979-3.1449-0.43019-3.1449-5.3055 0-4.5811 0.20943-5.0269 2.5-5.3207 3.0307-0.38882 5-2.7313 5-5.9473 0-3.4786 5.1524-8.232 8.9231-8.232 3.0573 0 3.0769 0.0345 3.0769 5.4182 0 8.1128 0.36279 8.5818 6.6384 8.5818 6.1815 0 7.3236 1.2635 5.3811 5.9531-1.1733 2.8325-5.1492 5.0469-9.0617 5.0469-2.619 0-2.9578 1.9309-2.9578 16.859 0 16.568 0.66435 18.141 7.6651 18.141 4.4643 0 4.5386 0.0528 3.8692 2.75-0.95727 3.8569-4.2645 7.0805-8.46 8.2459-4.2267 1.1742-3.7109 1.1937-7.9806-0.30238zm111.04-0.0627c-5.1366-1.8588-10.881-7.2134-13.898-12.955-2.3776-4.5242-2.7195-6.3102-2.714-14.176 5e-3 -7.3081 0.45189-9.9925 2.3766-14.279 5.6675-12.623 20.345-19.487 31.609-14.781 3.7867 1.5822 7.4802 6.7266 7.486 10.427 3e-3 1.991-0.35338 2.258-2.2463 1.6821-9.2446-2.8126-14.613-2.4869-19.673 1.1934-3.7691 2.7418-7.0774 9.874-7.0774 15.258 0 13.935 14.399 22.549 25.035 14.975 5.7854-4.1195 7.3026-9.3833 7.9196-27.475l0.54566-16h12v56l-6.25 0.29772c-5.6713 0.27015-6.25 0.11358-6.25-1.691 0-3.2466-1.4913-3.2675-7.5033-0.10501-4.6252 2.433-6.8591 2.9839-11.848 2.9222-3.3816-0.0418-7.6618-0.62372-9.5114-1.2931zm117.19-0.21047c-5.441-2.0034-12.853-8.5852-15.532-13.792-2.9594-5.7523-3.6596-18.069-1.3682-24.069 2.9553-7.7382 6.8886-12.096 14.142-15.666 5.9038-2.9064 7.6434-3.2926 14.832-3.2926 14.378 0 22.65 6.114 23.336 17.248 0.57525 9.3405-5.092 16.553-15.136 19.262-4.9818 1.3439-12.969 0.53309-16.309-1.6556-2.8178-1.8463-5.5512-7.61-4.6826-9.8737 0.52166-1.3594 0.94117-1.3434 3.7401 0.14288 4.1606 2.2094 13.186 2.1871 17.388-0.0429 3.4974-1.8559 5.2017-5.9354 3.5869-8.5854-1.9179-3.1471-7.5271-5.2447-12.572-4.7012-10.976 1.1824-16.001 6.2119-16.567 16.584-0.30315 5.5489-8e-3 7.031 1.9802 9.9304 5.1583 7.5239 12.459 9.6551 22.382 6.5339l5.735-1.8039 3.4305 3.7434c3.9636 4.325 3.5881 5.3846-3.1439 8.8708-5.3553 2.7732-19.15 3.4116-25.243 1.1682zm-268.89-0.74181c-0.2789-0.72677-0.37727-16.694-0.21862-35.482l0.28846-34.161 3-2.9606c1.6712-1.6492 4.3288-3.0968 6-3.268l3-0.30746 0.26174 38.75 0.26175 38.75h-6.0431c-4.0862 0-6.2073-0.42791-6.5502-1.3214zm72.339-20.881c-0.26892-22.269-0.2721-22.298-2.5193-22.617-2.0193-0.28679-2.25-0.87886-2.25-5.7748 0-4.8988 0.25501-5.5522 2.5-6.4057 2.0556-0.78152 2.501-1.6216 2.5056-4.7252 0.01577-10.675 4.7023-16.275 13.621-16.275 8.7039 0 12.374 2.6477 12.374 8.9277 0 2.614-0.2386 2.7589-4.3946 2.6682-5.3729-0.11724-8.8502 2.5113-8.4027 6.3519 0.27416 2.3533 0.76415 2.5911 6.2885 3.0522 6.6643 0.55617 7.6565 1.8151 5.5116 6.9933-1.1756 2.8382-4.3131 4.654-9.0028 5.2102l-2.5 0.29651-1 44-12.461 0.59444zm36.661 20.881c-0.2789-0.72677-0.37727-16.694-0.21862-35.482l0.28846-34.161 3-2.9606c1.6712-1.6492 4.3288-3.0968 6-3.268l3-0.30746 0.26174 38.75 0.26175 38.75h-6.0431c-4.0862 0-6.2073-0.42791-6.5502-1.3214zm97.804-26.88 0.26566-28.298 5.7621-0.30026c4.4757-0.23323 5.8949 0.0458 6.357 1.25 0.79241 2.065 2.0521 1.9541 5.108-0.44974 7.0808-5.5697 18.968 1.1116 16.867 9.4806-0.63508 2.5303-2.9406 3.386-4.0942 1.5194-0.33992-0.55-2.6231-1-5.0737-1-3.6779 0-5.1077 0.59712-8.191 3.4208l-3.7353 3.4208-1 38.658-12.531 0.59625zm-133.73-76.38c-13.479-1.8565-19.06-2.96-26-5.1412-27.479-8.6363-50.675-27.898-64.523-53.579-2.3138-4.291-3.9746-8.0343-3.6904-8.3184s2.6983 1.1614 5.3648 3.2122c12.85 9.8827 30.529 15.051 48.302 14.119 13.432-0.70396 23.953-3.4782 36.546-9.6368 18.394-8.9954 31.433-21.086 38.824-36.002 3.8164-7.7017 4.1738-9.0855 4.1503-16.073-0.0221-6.5958-0.47778-8.5643-3.3181-14.334-4.2572-8.6476-3.9505-10.464 2.3437-13.878 11.088-6.0152 34.679-8.7133 47.15-5.3927 16.539 4.4037 30.147 19.51 33.459 37.142 1.4739 7.8461 0.48547 21.326-2.2019 30.03-2.5549 8.2752-9.1746 21.681-14.722 29.813-16.6 24.336-42.995 41.287-72.455 46.532-6.6338 1.181-24.795 2.1165-29.23 1.5057zm-58.428-62.971c-17.879-3.8774-33.394-16.118-42.579-33.593-3.2376-6.1599-3.4932-7.3028-3.4932-15.619 0-43.551 28.905-86.671 69-102.93 8.6323-3.5014 20.217-6.7282 22.01-6.1306 0.674 0.22466-0.71675 1.6938-3.0906 3.2647-29.05 19.224-40.72 58.564-27.311 92.06 8.0418 20.088 30.9 42.959 45.057 45.082 2.3839 0.35749 4.3343 0.98908 4.3343 1.4036 0 1.0411-6.4634 5.2204-13.568 8.7732-16.584 8.2929-34.778 11.072-50.36 7.6932zm29.626-59.576c-7.9301-14.294-10.593-31.259-7.2586-46.245 6.6199-29.755 33.998-51.439 65.56-51.925 9.3816-0.14428 15.526 1.5966 28.5 8.0754 13.8 6.8908 23.879 14.857 36.245 28.646 7.3492 8.1949 8.6082 11.211 5.6907 13.632-1.3018 1.0804-2.6041 0.90804-7.75-1.0254-12.692-4.7688-19.669-6.1018-32.2-6.1527-14.024-0.0569-21.826 1.1751-32.796 5.1785-14.966 5.462-27.017 13.727-36.372 24.946-5.6801 6.8122-14.307 22.673-14.333 26.352-0.0383 5.3747-1.7486 4.8955-5.2862-1.481z" fill="#2c4c5a" />
  <path d="m59.759 399.58c-2.0575-0.73433-4.8542-2.0646-6.2148-2.9561-3.4947-2.2898-5.4071-2.0158-6.1336 0.87904-0.57223 2.28-1.102 2.5-6.0191 2.5h-5.3916v-69.968l2.75-2.9801c1.5125-1.639 3.9336-3.2564 5.3802-3.5941l2.6302-0.61404 0.50942 25.828c0.30204 15.314 0.98367 27.366 1.6743 29.606 3.632 11.777 16.888 16.199 25.608 8.5428 8.7615-7.6927 8.2181-22.317-1.0931-29.419-4.4523-3.3959-11.47-4.2587-16.737-2.0578-3.7172 1.5532-3.7215 1.5521-3.7215-0.94371 0-1.3742 0.64125-3.7387 1.425-5.2543 4.3943-8.4977 22.162-6.287 30.826 3.8355 4.7287 5.5244 6.7487 11.672 6.7487 20.538 0 5.973-0.5031 8.1689-3.0303 13.226-5.7839 11.575-17.865 16.882-29.211 12.832zm65.353-0.10928c-8.7026-2.4185-16.115-8.9338-19.655-17.276-3.5138-8.2804-2.5985-19.141 2.0005-23.741 4.3206-4.3206 14.017-4.4524 18.526-0.25184l2.3342 2.1746-4.3153 1.063c-5.7975 1.4281-8.5256 5.1444-8.4328 11.487 0.15992 10.93 9.3053 18.11 20.467 16.069 8.5806-1.5691 13.453-7.9053 13.452-17.493-1e-3 -9.912-6.1322-17.11-15.034-17.65-2.1752-0.13196-5.9345-1.2773-8.3539-2.5451s-5.6819-2.3052-7.25-2.3052c-6.2803 0-0.68755-3.9076 8.5582-5.9797 5.3217-1.1926 13.522-0.14438 18.316 2.3414 7.833 4.0615 15.036 14.923 15.983 24.101 2.0118 19.493-17.338 35.358-36.596 30.006zm201.39-0.79124c-12.854-6.2513-18.904-21.219-14.661-36.271 4.7552-16.867 25.631-26.135 35.851-15.916 2.2994 2.2994 3.3103 4.2413 3.3103 6.3592v3.049l-3.4679-1.449c-12.286-5.1333-24.742 3.5927-24.93 17.465-0.14692 10.814 6.6612 18.086 16.931 18.086 6.0242 0 10.294-2.5926 13.505-8.2006 2.2688-3.9622 2.5011-5.5933 2.9619-20.799l0.5-16.5 11.532-0.60076-0.2659 27.8-0.26591 27.8h-5.4549c-4.9945 0-5.5047-0.211-6.0451-2.5-0.74837-3.1702-1.4392-3.1352-7.2898 0.36835-6.8836 4.1222-15.393 4.6234-22.21 1.3082zm121.83 1.4254c-6.1065-1.5724-13.702-6.6994-16.987-11.466-8.0141-11.629-6.1562-29.507 3.9669-38.172 18.082-15.477 49.028-5.299 43.729 14.382-2.5588 9.5027-10.992 14.708-22.63 13.967-5.9984-0.38194-6.9662-0.75059-9.5435-3.635-1.5775-1.7655-2.8681-4.3279-2.8681-5.6942 0-2.9324 0.16572-2.967 4.206-0.87768 2.232 1.1542 4.9298 1.4904 9.5822 1.1942 5.7787-0.36796 6.7841-0.75773 9.3436-3.6223 3.4867-3.9023 3.5618-5.2604 0.48868-8.8332-2.0894-2.4291-3.2169-2.8109-9.25-3.1326-5.7644-0.3074-7.5865 0.0167-11.318 2.0132-5.3623 2.8692-9.0527 9.0736-9.0527 15.22 0 5.0283 3.4906 12.202 7.282 14.965 3.8858 2.8322 15.136 3.4587 19.703 1.0972l3.2888-1.7007 3.5359 3.5359c3.1522 3.1522 3.3815 3.7228 2.1131 5.259-3.6272 4.393-17.942 7.4696-25.59 5.5001zm-271.62-0.72374c-0.39138-0.39137-0.71159-15.959-0.71159-34.595 0-37.242 0.16364-38.366 5.9349-40.757 6.3205-2.618 6.116-3.941 5.8272 37.696l-0.26205 37.777-5.0384 0.29492c-2.7711 0.16221-5.3586-0.0253-5.75-0.41667zm38.788-0.32361c-1.1-0.45022-2.9-1.8177-4-3.0389-1.8267-2.0279-2.0271-3.8773-2.3129-21.341-0.18852-11.522-0.73397-19.628-1.3724-20.398-0.58277-0.70219-2.1295-1.2767-3.4371-1.2767-2.1512 0-2.3776-0.42847-2.3776-4.5 0-4.029 0.24074-4.5 2.3-4.5 3.0695 0 4.7-1.7985 4.7-5.1842 0-3.8298 4.672-8.8338 8.5-9.104l3-0.21175 0.30353 6.4741c0.16952 3.6156 0.8318 6.8099 1.5 7.2347 0.65806 0.41834 3.559 0.76751 6.4465 0.77593 2.9892 9e-3 5.25 0.46732 5.25 1.065 0 2.5976-3.2401 6.9636-5.5182 7.4358-1.365 0.28297-3.6068 0.74806-4.9818 1.0335l-2.5 0.51905v16.326c0 14.994 0.16136 16.472 1.9774 18.115 1.4452 1.3079 2.9253 1.6357 5.5 1.2178 3.9249-0.63692 4.3845 0.31685 2.3279 4.8306-2.1014 4.6122-9.6452 6.8433-15.305 4.5267zm33.212 0.32361c-0.39138-0.39137-0.71159-10.528-0.71159-22.526v-21.814l-2.5-0.62746c-2.2343-0.56077-2.5-1.14-2.5-5.4495 0-4.2209 0.27716-4.8619 2.2232-5.1416 1.9308-0.27753 2.3845-1.286 3.4499-7.6686 1.4797-8.8643 3.1113-11.595 7.8665-13.164 7.8486-2.5903 17.46 1.5206 17.46 7.4676 0 2.3539-0.34199 2.5454-4.5454 2.5454-3.4927 0-5.1139 0.56848-7 2.4546-4.8748 4.8748-2.6469 8.5454 5.1864 8.5454 2.8825 0 5.4872 0.39831 5.788 0.88513 0.89888 1.4544-1.5006 7.0828-3.4684 8.136-1.006 0.53839-2.8712 0.98578-4.1448 0.9942-5.2041 0.0344-5.2798 0.3428-5.8157 23.697l-0.5 21.788-5.0384 0.29492c-2.7711 0.16221-5.3586-0.0253-5.75-0.41667zm37 0c-0.39138-0.39137-0.71159-15.959-0.71159-34.595 0-37.242 0.16364-38.366 5.9349-40.757 6.3205-2.618 6.116-3.941 5.8272 37.696l-0.26205 37.777-5.0384 0.29492c-2.7711 0.16221-5.3586-0.0253-5.75-0.41667zm96.76-0.59125c-0.27824-0.72507-0.3857-13.236-0.23882-27.803l0.26706-26.484 5.349-0.30569c4.152-0.23729 5.6311 0.0801 6.6095 1.4181 1.1804 1.6143 1.4546 1.5856 4.3168-0.45247 4.3257-3.0802 8.3505-3.6633 12.056-1.7469 3.6483 1.8866 5.1681 4.3435 5.1681 8.3545 0 3.9067-0.60343 4.277-4.1155 2.5249-5.1915-2.5899-12.841 0.27011-16.141 6.035-0.81043 1.4156-1.4179 8.6172-1.7437 20.672l-0.5 18.5-5.2612 0.30265c-3.659 0.21048-5.4152-0.0988-5.7671-1.0156zm-144.79-105.31c-15.617-2.6242-31.632-9.2216-45.361-18.686-8.9359-6.1602-22.886-20.511-28.678-29.502-4.1519-6.445-8.6385-14.613-8.6385-15.726 0-0.28245 3.4875 1.8564 7.75 4.753 22.495 15.287 54.647 16.037 82.75 1.9308 18.334-9.2028 30.457-20.586 38.606-36.25 3.1483-6.0517 3.3815-7.1552 3.3823-16 8e-4 -9.5784-0.7296-12.182-5.5417-19.753-1.0725-1.6875-1.1588-2.6921-0.34358-4 3.0021-4.8165 18.807-10.014 33.308-10.954 38.461-2.4918 61.724 30.63 48.96 69.707-6.9717 21.343-24.191 44.322-42.547 56.777-23.335 15.833-54.953 22.525-83.646 17.704zm-41.678-60.479c-20.864-2.7901-37.464-14.623-48.149-34.324-3.2667-6.0227-3.3465-6.4532-3.1855-17.177 0.59628-39.702 25.542-79.457 61.112-97.391 7.3873-3.7247 23.727-9.3611 25.851-8.9177 0.90102 0.18804-1.2873 2.5671-5.5874 6.0746-11.727 9.5652-20.8 23.755-25.22 39.443-2.7717 9.8372-2.9957 27.31-0.48207 37.611 5.9228 24.271 28.176 50.705 47.388 56.29 3.0097 0.87495 5.0898 1.9659 4.6223 2.4244-2.29 2.2458-13.572 8.2924-20.349 10.906-11.14 4.2961-26.051 6.3926-36.001 5.062zm22.686-63.251c-5.2346-10.683-7.0519-18.563-6.9761-30.25 0.11504-17.735 6.785-33.024 19.788-45.359 11.768-11.163 27.303-17.812 44.002-18.833 7.9452-0.4855 9.9122-0.24232 16.783 2.0749 16.414 5.5358 30.96 14.752 44.288 28.059 16.456 16.43 17.356 23.512 2.2162 17.437-9.4354-3.7863-15.083-4.9537-26.787-5.5374-29.16-1.4543-54.935 9.2633-73.036 30.37-5.452 6.3573-12.139 18.395-13.909 25.039-0.62277 2.3375-1.5114 4.25-1.9746 4.25-0.46327 0-2.4409-3.2625-4.3948-7.25z" fill="#143846" />
  <path d="m57.5 398c-2.2-1.0762-4.7263-2.4879-5.6141-3.1372-2.1636-1.5824-4.8859-0.40882-4.8859 2.1064 0 1.7973-0.63815 2.0314-5.5374 2.0314h-5.5374l0.28738-34.583 0.28738-34.583 3.2658-2.9169c1.7962-1.6043 4.1318-2.9169 5.1904-2.9169 1.8438 0 1.9376 1.1234 2.2342 26.75 0.30563 26.403 0.34207 26.808 2.8096 31.211 3.4323 6.125 8.0141 9.0387 14.214 9.0387 2.7048 0 5.9008-0.50498 7.1021-1.1222 11.134-5.7204 13.635-21.594 4.8548-30.815-5.0149-5.2665-10.72-6.7953-17.901-4.7966-5.7072 1.5885-5.791 1.5276-4.1951-3.0506 3.1422-9.0136 18.029-9.1577 28.123-0.27229 10.562 9.2973 12.58 26.739 4.4834 38.76-6.2361 9.259-19.503 13.031-29.181 8.2961zm64.96-0.0429c-5.9517-2.2903-12.596-8.3495-15.616-14.241-4.7724-9.3105-3.1015-23.31 3.1554-26.437 3.5217-1.7597 10.522-1.577 14.293 0.37296l3.1939 1.6516-3.9935 1.3522c-2.1964 0.74371-5.0533 2.5556-6.3487 4.0264-2.0626 2.3421-2.3052 3.4581-1.9533 8.9854 0.6152 9.6616 5.7202 15.234 14.752 16.101 6.8064 0.65401 13.248-1.8422 16.812-6.515 2.267-2.9721 2.7714-4.752 3.0212-10.661 0.25099-5.9365-0.0765-7.7418-2.0089-11.073-2.7212-4.6905-8.852-8.4791-13.768-8.5081-1.925-0.0113-5.7138-1.1438-8.4195-2.5165-2.7057-1.3727-5.8557-2.5157-7-2.54-1.5569-0.0331-1.0739-0.59545 1.9195-2.2347 5.7464-3.1468 18.24-3.1195 24.223 0.053 9.7879 5.19 15.333 13.744 16.053 24.766 0.60519 9.2631-2.038 15.712-9.0091 21.979-8.1341 7.3132-19.13 9.3532-29.307 5.437zm204.04 0.22513c-2.2-1.0339-5.8899-3.9381-8.1997-6.4538-15.574-16.963-3.8482-48.607 18.049-48.706 7.9374-0.0359 11.885 2.5879 14.078 9.3566 0.5448 1.6816 0.26586 1.7908-2.6593 1.0411-14.734-3.7758-25.768 4.2484-25.768 18.739 0 19.381 23.778 26.115 32.154 9.1057 2.1142-4.2934 2.3793-6.3746 2.6829-21.063l0.33688-16.299 10.326 0.59849 0.53214 54.5h-5.5161c-5.1514 0-5.5161-0.15821-5.5161-2.393 0-3.656-2.2123-3.7371-7.5326-0.27632-4.0784 2.653-5.9547 3.1952-11.904 3.44-5.2914 0.21777-8.0662-0.1808-11.063-1.5891zm119.22 0.44118c-11.693-4.3571-18.575-14.196-18.674-26.695-0.0639-8.1075 2.4894-14.557 7.9085-19.976 5.7906-5.7906 11.802-7.9599 21.976-7.9304 8.8434 0.0257 14.283 2.0638 18.323 6.8652 10.296 12.236-2.6201 30.234-19.843 27.651-5.2688-0.79011-10.408-4.7578-10.408-8.0354 0-2.319 3.5e-4 -2.319 4.8354-0.77287 6.2824 2.009 13.082 1.0515 17.212-2.4238 2.5131-2.1146 3.0034-3.1985 2.7548-6.0901-0.46525-5.4112-4.2767-7.7271-12.629-7.6736-10.483 0.0672-17.227 4.8167-19.075 13.435-3.4377 16.03 10.083 27.011 26.426 21.463l4.594-1.5597 2.1909 2.7853c1.205 1.5319 2.1909 3.2375 2.1909 3.7902 0 0.55272-1.9949 2.1054-4.4332 3.4504-5.4943 3.0308-17.461 3.9105-23.349 1.7164zm-269.71-31.873c3e-3 -19.107 0.42667-33.766 1.0389-35.971 1.1391-4.1015 4.1721-6.7795 7.6781-6.7795h2.2775v75h-11l6e-3 -32.25zm36.918 29.327-2.9231-2.9231v-18.495c0-10.172-0.26845-19.195-0.59655-20.05-0.3281-0.85503-2.152-1.8464-4.0531-2.203-3.2647-0.61246-3.4398-0.8499-3.1534-4.2772 0.26781-3.2058 0.65243-3.6684 3.2999-3.969 3.5181-0.39943 4.4556-1.5733 4.5197-5.6598 0.0533-3.3954 1.481-5.6394 4.6678-7.3367 4.3849-2.3354 5.3157-1.5904 5.3157 4.2549 0 8.2086 0.30908 8.5818 7.107 8.5818 4.9804 0 5.893 0.27525 5.893 1.7775 0 3.3871-2.7742 5.9289-7.1049 6.5098-2.3008 0.3086-4.5616 1.1577-5.0239 1.8869-0.46231 0.72921-0.84746 8.2088-0.85588 16.621-0.0151 15.096 0.0181 15.329 2.551 17.862 2.0053 2.0053 3.2076 2.438 5.5 1.9795 2.4714-0.49428 2.9337-0.268 2.9337 1.436 0 1.1125-1.1907 3.1263-2.646 4.475-4.0134 3.7195-11.468 3.492-15.431-0.47083zm35.846-19.327c-0.26877-22.22-0.27214-22.25-2.5191-22.57-1.9809-0.28134-2.25-0.90087-2.25-5.1804s0.26908-4.8991 2.25-5.1804c1.9657-0.27917 2.3359-1.0985 2.93-6.4839 1.2495-11.327 5.1543-15.038 14.842-14.108 5.7748 0.55489 8.9797 2.9391 8.9751 6.6769-3e-3 2.3977-0.33918 2.5968-4.4217 2.6192-5.9105 0.0323-8.7811 2.5776-8.3736 7.4247l0.29851 3.5511 6.25 0.29772c5.8024 0.27639 6.25 0.4654 6.25 2.6392 0 3.5906-3.0332 6.3516-8 7.2821l-4.5 0.84308-0.26913 22.219-0.26913 22.219h-10.923zm36.236-10c3e-3 -19.107 0.42667-33.766 1.0389-35.971 1.1391-4.1015 4.1721-6.7795 7.6781-6.7795h2.2775v75h-11l6e-3 -32.25zm97.994 4.75v-27.5h5.0936c4.2526 0 5.18 0.33022 5.6166 2 0.69648 2.6634 2.3725 2.5213 5.8842-0.49878 5.1318-4.4133 13.23-2.7243 15.494 3.2318 0.5293 1.3921 0.69568 3.3714 0.36974 4.3983-0.48948 1.5422-0.95008 1.6758-2.6466 0.76792-5.2209-2.7941-13.467-0.15201-16.852 5.3993-1.7474 2.8658-1.9524 5.1149-1.9558 21.451l-0.00374 18.25h-11zm-135-77.637c-36.003-2.4127-68.078-22.471-87.426-54.672-2.0848-3.4698-3.5697-6.5295-3.2997-6.7994 0.26993-0.26993 2.231 0.69863 4.358 2.1524 15.163 10.363 36.257 14.684 56.079 11.486 28.782-4.6431 55.788-23.15 67.098-45.982 3.3921-6.848 3.6908-8.148 3.6891-16.056-2e-3 -7.8232-0.3142-9.2199-3.4421-15.382-3.9984-7.8775-3.7406-8.8773 3.1787-12.328 8.7369-4.357 16.321-5.7826 30.765-5.7826 13.464 0 13.52 0.01 21.119 3.6386 18.35 8.7631 28.395 27.189 26.461 48.537-1.7094 18.864-12.637 40.904-28.628 57.739-23.324 24.554-53.767 35.874-89.952 33.45zm-55.659-61.959c-18.067-3.0179-34.467-15.783-44.497-34.634-3.0579-5.7474-3.0681-5.8191-2.5101-17.771 1.5092-32.329 17.406-62.946 43.429-83.641 11.481-9.1307 26.836-16.712 39.237-19.373 3.4729-0.74515 3.4554-0.71464-2.2472 3.934-25.384 20.692-34.74 57.411-22.57 88.58 7.9802 20.439 27.4 40.993 43.411 45.947l5.7334 1.7739-6.9134 4.0018c-17.305 10.017-36.206 13.999-53.072 11.182zm29.911-57.141c-2.0535-2.556-6.1257-11.514-7.8674-17.307-2.7514-9.151-2.5451-25.823 0.43877-35.457 3.2582-10.521 8.9005-19.555 16.964-27.161 11.347-10.704 23.982-16.513 40.911-18.809 6.8148-0.92406 9.2139-0.84865 14.213 0.44674 20.011 5.1854 40.541 18.575 55.675 36.311 9.6151 11.269 8.2438 14.366-4.1313 9.3296-27.811-11.318-63.777-5.8494-87.885 13.362-11.853 9.4455-21.037 21.931-25.175 34.226-1.5596 4.6344-2.3985 5.9844-3.1429 5.0578z" fill="#002737" />
</svg>